<svg width="154" height="54" viewBox="0 0 154 54" fill="none" xmlns="http://www.w3.org/2000/svg">
<rect width="154" height="54" fill="#E5E5E5"/>
<path d="M2 39.495C4.18433 36.3142 6.42433 33.3124 8.18215 29.9339C9.75845 26.9042 10.9141 23.959 12.0655 20.8173C13.3524 17.3057 14.7316 13.942 16.3125 10.5082C17.4197 8.10303 19.0605 5.73496 19.8451 3.23436C19.9213 2.99163 20.001 1.29368 20.001 2.33462C20.001 3.57041 20.001 4.8062 20.001 6.04198C20.001 7.75115 19.8344 9.5155 20.1828 11.2019C20.8851 14.6018 22.437 17.8987 22.5855 21.3701C22.7156 24.4099 22.8419 27.4248 22.8063 30.4759C22.7782 32.8864 21.8712 35.2626 21.8712 37.6305C21.8712 37.99 21.8459 38.3559 21.8712 38.7145C21.8774 38.8026 22.0408 38.5853 22.053 38.4977C22.176 37.6178 21.9129 36.8527 21.4036 36.0912C20.222 34.3241 19.4744 32.92 17.6892 31.4299C15.5914 29.679 12.9756 28.425 10.9355 26.6276C10.2143 25.9922 9.96428 25.4869 8.98739 25.1534C7.92636 24.7911 7.00802 24.4522 6.02619 23.9718C5.73394 23.8288 4.77017 23.885 5.62357 23.885C6.11307 23.885 6.82085 23.7695 7.27301 23.9284C8.73503 24.4422 9.24859 26.0649 10.5329 26.8986C11.2446 27.3606 12.2036 27.7495 12.9876 28.1344C13.6649 28.467 14.0485 29.1626 14.8578 29.5003C15.5742 29.7993 15.8925 30.6574 16.4943 30.9529C17.3451 31.3706 18.099 32.4762 18.8321 33.0559C19.466 33.5572 20.0906 34.3648 20.5854 35.0071C21.1082 35.6859 21.0711 36.5759 21.5205 37.2511C21.8242 37.7073 21.5618 38.7598 21.9751 39.1048C22.4294 39.4839 23.615 39.2999 24.209 39.2999C24.8289 39.2999 25.5914 39.4012 26.1961 39.289C26.8179 39.1737 27.3601 37.5664 27.4689 37.0668C27.6064 36.4354 27.7157 35.5286 27.7157 34.9096C27.7157 33.3345 29.0616 32.1505 29.3261 30.6602C29.5884 29.1826 30.1399 27.5498 30.8587 26.1832C31.899 24.2055 32.2233 22.3207 32.8068 20.2644C33.1869 18.9249 32.7114 17.4834 33.1056 16.1126C33.3924 15.1149 33.6048 14.1225 33.9238 13.1315C34.1187 12.5259 34.6095 12.0921 34.742 11.4838C35.0603 10.0226 35.4304 8.54415 35.4304 7.06097C35.4304 6.25911 35.8618 5.53381 35.8979 4.71947C35.9233 4.14678 36.0523 4.02719 35.9109 4.67611C35.8017 5.17763 35.7222 5.65321 35.4823 6.12871C35.3638 6.36362 35.4461 6.6604 35.4304 6.9092C35.4014 7.3688 34.9628 7.7175 34.9628 8.18836C34.9628 9.11762 34.6286 9.90761 34.5082 10.8117C34.2231 12.9533 34.0277 14.8777 34.0277 17.0557C34.0277 18.5435 33.2473 19.792 33.0796 21.2617C33.0011 21.95 32.9125 22.9849 32.5081 23.5924C32.0438 24.29 32.3828 25.0573 31.9237 25.7279C31.4659 26.3965 31.0137 27.0945 32.1055 26.1832C32.4912 25.8612 32.7643 25.3808 32.9757 24.9691C33.2104 24.512 33.7004 24.2987 33.9757 23.885C34.8848 22.5193 37.0691 22.4696 38.4435 21.6411C39.9727 20.7193 41.4139 20.0329 43.1191 19.3213C46.5425 17.8926 49.5915 15.9666 52.9638 14.5191C54.332 13.9317 52.7005 14.4051 52.2105 14.5624C51.1985 14.8873 50.4742 15.6751 49.561 16.1234C47.9793 16.9 46.5043 18.0386 44.8854 18.8985C44.573 19.0645 44.2007 19.1707 43.8464 19.2129C43.3012 19.2779 43.135 19.7583 42.6775 19.9392C41.7921 20.2892 40.8854 20.8014 39.9241 21.1099C39.0959 21.3758 38.4607 22.1884 37.6383 22.3132C36.076 22.5503 37.2924 23.2256 37.976 23.5924C40.134 24.7503 41.4734 27.1217 42.5736 28.9583C43.0986 29.8347 43.8427 30.6653 44.2101 31.6033C44.4452 32.2037 44.1678 32.8538 44.4438 33.4461C44.639 33.865 45.2303 33.9858 45.2491 34.3784C45.2721 34.8588 45.5686 36.1779 46.1842 36.1779C46.7599 36.1779 47.2996 36.3362 47.8466 36.4814C48.9328 36.7699 49.8792 36.7633 51.0156 36.7633C56.5614 36.7633 62.1071 36.7633 67.6529 36.7633C68.5045 36.7633 69.4742 36.8693 70.3154 36.7199C72.0295 36.4155 72.8337 35.6634 74.0298 34.6928C75.367 33.6077 76.8178 32.6474 76.1079 31.0179C75.8871 30.5113 75.4918 30.0314 75.1728 29.5653C74.5629 28.6745 73.7976 27.5913 72.9908 26.7902C71.0477 24.8608 68.4892 24.6655 65.6917 24.6655C64.2097 24.6655 62.2475 25.1527 60.8083 24.7523C59.5785 24.4101 58.9017 23.0543 58.4706 22.1289C58.2412 21.6367 58.1643 20.9134 58.1199 20.3945C58.0631 19.7303 57.6609 19.1564 57.6393 18.5083C57.5851 16.8769 58.7742 15.1989 59.5615 13.7386C60.6365 11.7448 63.1031 10.096 65.7697 9.74935C68.3386 9.41542 70.692 9.05558 73.3025 9.05558C75.0559 9.05558 76.8092 9.05558 78.5625 9.05558C80.1747 9.05558 81.5836 8.53437 83.1212 8.4702C84.1425 8.42758 85.1773 8.4702 86.1993 8.4702C86.5582 8.4702 87.2168 8.33636 86.9786 8.77373C86.6811 9.32002 86.886 10.0722 86.8617 10.6599C86.818 11.7175 86.4923 12.8016 86.4071 13.8686C86.282 15.4349 86.3054 16.9424 86.0305 18.5083C85.482 21.632 85.4661 24.8014 84.8746 27.9285C84.4965 29.9268 84.1774 31.9347 83.8226 33.934C83.6775 34.7512 83.1758 35.5531 83.1212 36.373C83.1148 36.4694 83.5107 35.4143 83.5758 35.1155C83.8511 33.8519 84.1686 32.6861 84.42 31.3973C84.6941 29.992 85.7528 28.8045 85.9266 27.3539C86.0097 26.6599 86.8784 24.8467 87.563 24.2753C88.3491 23.6192 89.9346 23.2843 90.9788 23.2021C91.9418 23.1263 92.9549 23.0466 93.927 23.1045C94.9397 23.1649 95.5267 24.517 96.07 25.11C97.0641 26.1951 98.3283 28.0278 97.5636 29.5437C97.0107 30.6397 96.8604 32.0766 96.4986 33.251C96.1921 34.2457 96.0681 34.8347 97.3817 35.354C98.1407 35.6541 99.6546 34.953 100.278 34.6061C100.567 34.445 100.94 33.6352 101.122 33.3594C102.077 31.9177 103.305 30.6079 104.213 29.1317C105.448 27.125 107.101 24.9538 108.941 23.2997C109.696 22.6205 110.187 22.0404 111.266 21.6736C114.091 20.713 117.208 20.016 120.136 19.2888C121.799 18.8759 118.625 19.8479 118.188 20.0259C117.423 20.3376 116.607 20.5557 115.85 20.8715C114.527 21.4235 112.889 21.7594 111.655 22.4216C109.563 23.5443 106.237 24.8154 105.811 27.1263C105.631 28.1004 104.826 29.0334 104.395 29.9773C103.86 31.1491 104.782 31.7603 105.148 32.8608C105.811 34.8521 107.303 34.812 109.551 34.812C111.735 34.812 115.105 35.1424 116.993 34.1291C118.798 33.1604 118.42 31.6469 119.279 30.129C120.404 28.141 122.63 26.068 122.63 23.7983C122.63 23.1175 122.548 22.8224 122.071 22.2482C121.733 21.8406 121.975 21.3863 121.565 20.9582C121.349 20.7331 121.242 19.1862 121.227 18.8552C121.195 18.1653 121.458 19.8674 121.513 20.0693C121.681 20.6928 121.726 21.2575 121.682 21.9013C121.544 23.9093 120.76 25.8466 120.76 27.8743C120.76 28.7355 120.804 29.5828 120.877 30.4434C120.99 31.7931 121.443 32.5555 121.877 33.7497C122.119 34.4167 123.364 34.2266 124.033 34.2266C124.772 34.2266 125.562 34.2662 126.253 34.0098C127.887 33.4038 128.895 31.2458 129.76 30.0423C130.529 28.972 130.188 27.6965 130.812 26.5734C131.496 25.3433 131.425 23.9415 132.072 22.6818C132.293 22.2521 133.794 18.4432 132.812 18.4432C132.476 18.4432 132.886 20.2366 132.903 20.427C132.983 21.3263 132.929 22.2282 132.682 23.1045C132.315 24.4069 131.513 25.8568 131.513 27.2022C131.513 28.3514 131.806 29.3972 132.799 30.2266C133.766 31.0333 135.703 30.7367 136.929 30.812C138.566 30.9124 140.629 31.3608 142.176 30.7903C144.186 30.0493 145.164 28.5956 146.371 27.1371C147.625 25.6219 148.621 23.6074 149.501 21.9121C149.959 21.0317 150.223 20.0938 150.709 19.2237C151.082 18.5565 151.925 17.7988 151.982 17.034C152.185 14.3242 150.62 22.3571 149.566 24.9257C148.91 26.5263 148.32 28.0397 147.54 29.6195C146.774 31.1737 145.869 32.6158 144.969 34.1182C141.295 40.2513 133.374 42.3805 125.747 43.8528C120.261 44.9118 114.708 45.3824 109.136 45.9775C101.643 46.7776 94.2761 48.2082 86.7838 49.0128C78.7818 49.8721 70.7219 50.2899 62.6786 50.7689C57.5262 51.0757 52.4053 51.6203 47.2622 51.9505C45.2409 52.0802 44.8612 52.0592 45.8985 50.5521C46.3709 49.8657 46.6158 49.6095 47.483 49.2621C48.9217 48.6857 51.0314 48.8983 52.5482 48.7743C53.8933 48.6643 55.1495 48.3562 56.4705 48.1672C57.9272 47.9588 59.431 48.1405 60.8993 48.0588C69.2185 47.5959 77.5272 47.7162 85.8746 47.6902C89.5206 47.6789 92.699 47.0246 96.2388 46.4545C98.4269 46.102 100.793 45.5017 102.992 45.3488C107.752 45.0177 112.563 45.104 117.279 44.72C118.949 44.5841 120.549 44.189 122.24 44.0804C124.127 43.9593 125.922 43.7409 127.773 43.3975" stroke="black" stroke-width="3" stroke-linecap="round"/>
</svg>
