<?xml version="1.0" encoding="UTF-8" standalone="no"?>
<!-- Created with Inkscape (http://www.inkscape.org/) -->
<!-- translate-xy="162,-166" -->

<svg
   xmlns:dc="http://purl.org/dc/elements/1.1/"
   xmlns:cc="http://creativecommons.org/ns#"
   xmlns:rdf="http://www.w3.org/1999/02/22-rdf-syntax-ns#"
   xmlns:svg="http://www.w3.org/2000/svg"
   xmlns="http://www.w3.org/2000/svg"
   xmlns:sodipodi="http://sodipodi.sourceforge.net/DTD/sodipodi-0.dtd"
   xmlns:inkscape="http://www.inkscape.org/namespaces/inkscape"
   width="411.83789"
   height="164.99359"
   viewBox="0 0 411.83789 164.99359"
   version="1.1"
   id="svg2216"
   inkscape:version="0.92.3 (2405546, 2018-03-11)"
   sodipodi:docname="blank-small-c.svg">
  <defs
     id="defs2210" />
  <sodipodi:namedview
     id="base"
     pagecolor="#ffffff"
     bordercolor="#666666"
     borderopacity="1.0"
     inkscape:pageopacity="0.0"
     inkscape:pageshadow="2"
     inkscape:zoom="1.4142136"
     inkscape:cx="187.6057"
     inkscape:cy="85.613372"
     inkscape:document-units="px"
     inkscape:current-layer="layer1"
     showgrid="false"
     units="px"
     inkscape:window-width="1280"
     inkscape:window-height="737"
     inkscape:window-x="-8"
     inkscape:window-y="-8"
     inkscape:window-maximized="1"
     fit-margin-top="10"
     fit-margin-left="10"
     fit-margin-bottom="10"
     fit-margin-right="10"
     inkscape:showpageshadow="false"
     showguides="true"
     inkscape:snap-global="true"
     scale-x="1" />
  <metadata
     id="metadata2213">
    <rdf:RDF>
      <cc:Work
         rdf:about="">
        <dc:format>image/svg+xml</dc:format>
        <dc:type
           rdf:resource="http://purl.org/dc/dcmitype/StillImage" />
        <dc:title></dc:title>
      </cc:Work>
    </rdf:RDF>
  </metadata>
  <g
     inkscape:label="Layer 1"
     inkscape:groupmode="layer"
     id="layer1"
     transform="translate(162.42218,-166.30782)">
    <text
       xml:space="preserve"
       style="font-style:normal;font-weight:normal;font-size:10.58333397px;line-height:1.25;font-family:sans-serif;letter-spacing:0px;word-spacing:0px;fill:#000000;fill-opacity:1;stroke:none;stroke-width:0.26458335"
       x="7.075563"
       y="196.98131"
       id="text824"><tspan
         sodipodi:role="line"
         id="tspan822"
         x="7.075563"
         y="206.63681"
         style="font-style:normal;font-variant:normal;font-weight:bold;font-stretch:normal;font-size:19.04999924px;font-family:'Dancing Script';-inkscape-font-specification:'Dancing Script Bold';fill:#000000;fill-opacity:1;stroke-width:0.26458335" /></text>
    <rect
       style="fill:none;fill-opacity:1;stroke:#000000;stroke-width:3.00000024;stroke-miterlimit:4;stroke-dasharray:none;stroke-opacity:1"
       id="rect814"
       width="388.83789"
       height="141.99359"
       x="-150.92218"
       y="177.80782" />
  </g>

<g transform="translate(73.455,-166) "> 
<g
       aria-label="a"
       style="font-style:normal;font-weight:normal;font-size:10.58333397px;line-height:1.25;font-family:sans-serif;letter-spacing:0px;word-spacing:0px;fill:#000000;fill-opacity:1;stroke:none;stroke-width:0.26458335"
       id="text826">
      <path
         d="m 19.8041,249.35328 q -2.52,0 -4.176,-1.656 -1.728,-1.656 -1.728,-4.68 0,-4.176 3.024,-9.36 3.096,-5.184 7.848,-8.784 4.752,-3.6 9.504,-3.6 3.168,0 5.256,1.656 2.16,1.584 2.16,4.104 0,3.312 -4.104,3.456 2.592,0.792 2.592,2.16 0,0.504 -0.504,1.512 -0.504,1.008 -1.152,2.088 -1.152,1.872 -1.8,3.312 -0.648,1.368 -0.648,2.592 0,1.08 0.504,1.872 0.576,0.72 1.656,0.72 2.016,0 5.112,-2.808 3.168,-2.808 6.12,-8.424 l 1.368,1.368 q -2.664,5.976 -6.624,9.648 -3.96,3.6 -7.992,3.6 -2.88,0 -4.464,-1.944 -1.512,-1.872 -1.512,-4.32 -3.24,3.888 -5.544,5.688 -2.304,1.8 -4.896,1.8 z m 1.512,-3.672 q 2.52,0 5.832,-3.6 3.384,-3.672 7.632,-9.504 l 1.44,-1.944 q 0.216,-0.36 0.576,-0.36 l 0.288,0.072 q 0.36,-1.152 0.36,-2.664 0,-3.744 -3.024,-3.744 -3.168,0 -6.624,3.384 -3.456,3.384 -5.832,8.064 -2.304,4.68 -2.304,7.992 0,1.224 0.36,1.8 0.432,0.504 1.296,0.504 z"
         style="font-style:normal;font-variant:normal;font-weight:bold;font-stretch:normal;font-size:72px;font-family:'Dancing Script';-inkscape-font-specification:'Dancing Script Bold';fill:#000000;fill-opacity:1;stroke-width:0.26458335"
         id="path11" />
    </g>

</g> 

<g transform="translate(105.205,-166) "> 
<g
       aria-label="k"
       style="font-style:normal;font-weight:normal;font-size:10.58333397px;line-height:1.25;font-family:sans-serif;letter-spacing:0px;word-spacing:0px;fill:#000000;fill-opacity:1;stroke:none;stroke-width:0.26458335"
       id="text826">
      <path
         d="m 38.5961,248.70528 q -2.808,0 -4.752,-2.304 -1.944,-2.232 -2.88,-5.4 -0.936,-3.168 -0.936,-5.688 9.288,-2.088 9.288,-6.408 0,-1.296 -0.864,-2.088 -0.792,-0.792 -2.304,-0.792 -4.392,0 -7.776,5.616 -3.312,5.544 -6.048,12.888 -0.792,2.16 -1.512,2.88 -0.72,0.792 -2.088,0.792 -1.152,0 -2.016,-1.008 -0.792,-1.008 -0.792,-4.392 0,-8.28 4.248,-19.656 4.248,-11.448 9.72,-20.016 5.472,-8.568 8.352,-8.568 1.224,0 2.016,1.512 0.864,1.512 0.864,3.744 0,3.24 -1.944,7.488 -1.872,4.176 -5.328,8.064 -3.384,3.888 -7.632,6.408 -1.872,4.464 -3.024,9.072 -1.152,4.536 -1.44,8.28 7.776,-17.856 15.984,-17.856 2.88,0 5.04,2.088 2.16,2.016 2.16,4.968 0,2.664 -1.8,4.608 -1.8,1.872 -4.248,2.88 -2.448,0.936 -4.32,1.008 0.72,3.312 1.944,5.904 1.296,2.52 3.744,2.52 2.592,0 5.472,-3.384 2.88,-3.456 5.256,-8.712 l 1.008,1.224 q -2.016,5.832 -5.76,10.08 -3.744,4.248 -7.632,4.248 z m -10.296,-31.824 q 3.528,-3.096 6.408,-7.416 2.952,-4.392 3.024,-8.136 -1.152,0.504 -3.96,5.04 -2.808,4.536 -5.472,10.512 z"
         style="font-style:normal;font-variant:normal;font-weight:bold;font-stretch:normal;font-size:72px;font-family:'Dancing Script';-inkscape-font-specification:'Dancing Script Bold';fill:#000000;fill-opacity:1;stroke-width:0.26458335"
         id="path11" />
    </g>

</g> 

<g transform="translate(138.845,-166) "> 
<g
       aria-label="s"
       style="font-style:normal;font-weight:normal;font-size:10.58333397px;line-height:1.25;font-family:sans-serif;letter-spacing:0px;word-spacing:0px;fill:#000000;fill-opacity:1;stroke:none;stroke-width:0.26458335"
       id="text826">
      <path
         d="m 24.1961,249.64128 q -5.04,0 -7.488,-2.952 -2.376,-2.88 -2.376,-6.912 0,-2.808 1.008,-3.888 1.008,-1.152 2.232,-1.728 1.296,-0.576 1.512,-0.792 4.608,-4.752 6.984,-9.864 v -0.72 q 0,-2.664 0.864,-3.96 0.936,-1.296 2.376,-1.296 1.584,0 1.728,1.44 0,0.36 -0.216,1.08 -0.144,0.72 -0.144,1.512 0,1.368 0.432,2.88 0.432,1.512 1.368,4.104 1.152,3.168 1.728,5.472 0.648,2.304 0.648,4.68 0,1.224 -0.288,2.952 4.896,-1.224 8.496,-8.136 l 0.864,0.648 q -1.44,4.104 -4.032,6.624 -2.52,2.52 -5.976,3.024 -1.152,2.88 -3.744,4.32 -2.592,1.512 -5.976,1.512 z m 4.68,-8.136 q 0.216,-0.648 0.216,-2.232 -0.072,-2.304 -0.504,-4.536 -0.432,-2.232 -1.296,-5.76 l -0.648,-2.592 q -3.528,6.12 -6.264,9 1.224,2.088 3.456,3.816 2.232,1.656 5.04,2.304 z m -5.184,4.968 q 1.44,0 2.664,-0.72 1.296,-0.72 1.944,-2.088 -2.808,-0.576 -5.184,-2.16 -2.376,-1.656 -3.816,-3.528 -1.008,0.216 -1.008,1.944 0,2.592 1.44,4.608 1.44,1.944 3.96,1.944 z"
         style="font-style:normal;font-variant:normal;font-weight:bold;font-stretch:normal;font-size:72px;font-family:'Dancing Script';-inkscape-font-specification:'Dancing Script Bold';fill:#000000;fill-opacity:1;stroke-width:0.26458335"
         id="path11" />
    </g>

</g> 

<g transform="translate(164.165,-166) "> 
<g
       aria-label="h"
       style="font-style:normal;font-weight:normal;font-size:10.58333397px;line-height:1.25;font-family:sans-serif;letter-spacing:0px;word-spacing:0px;fill:#000000;fill-opacity:1;stroke:none;stroke-width:0.26458335"
       id="text826">
      <path
         d="m 19.0841,248.70528 q -1.512,0 -2.232,-2.304 -0.72,-2.304 -0.72,-5.832 0,-6.48 4.032,-17.568 4.104,-11.16 9.36,-19.8 5.256,-8.64 8.568,-8.64 1.44,0 2.232,1.584 0.864,1.584 0.864,3.528 0,3.312 -2.448,8.856 -2.376,5.544 -6.336,10.728 -3.888,5.112 -8.064,7.56 -2.448,6.48 -2.448,12.24 l 0.072,1.512 q 0.144,-0.216 0.648,-1.584 1.44,-3.744 3.024,-6.768 1.584,-3.024 4.32,-5.616 2.808,-2.664 6.48,-2.664 3.312,0 4.824,2.16 1.512,2.088 1.512,4.968 0,1.656 -0.432,3.096 -0.432,1.44 -1.296,3.672 -0.144,0.288 -0.576,1.368 -0.36,1.008 -0.576,1.872 -0.144,0.792 -0.144,1.44 0,2.304 1.944,2.304 1.584,0 3.744,-1.584 2.16,-1.584 4.248,-4.248 2.088,-2.664 3.6,-5.76 l 1.152,1.224 q -2.664,5.904 -6.48,9.576 -3.744,3.672 -8.064,3.672 -2.664,0 -4.176,-1.44 -1.44,-1.368 -1.44,-3.6 0,-1.44 1.008,-5.184 1.08,-3.528 1.08,-5.256 0,-3.024 -2.592,-3.024 -2.592,0 -4.392,2.736 -1.728,2.664 -3.96,7.92 -1.8,4.464 -3.168,6.624 -1.368,2.232 -3.168,2.232 z m 6.768,-26.496 q 2.952,-2.664 5.688,-6.912 2.736,-4.248 4.464,-8.208 1.728,-4.032 1.728,-5.76 -0.864,0.36 -3.096,3.528 -2.232,3.096 -4.68,7.848 -2.448,4.68 -4.104,9.504 z"
         style="font-style:normal;font-variant:normal;font-weight:bold;font-stretch:normal;font-size:72px;font-family:'Dancing Script';-inkscape-font-specification:'Dancing Script Bold';fill:#000000;fill-opacity:1;stroke-width:0.26458335"
         id="path11" />
    </g>

</g> 

<g transform="translate(200.075,-166) "> 
<g
       aria-label="a"
       style="font-style:normal;font-weight:normal;font-size:10.58333397px;line-height:1.25;font-family:sans-serif;letter-spacing:0px;word-spacing:0px;fill:#000000;fill-opacity:1;stroke:none;stroke-width:0.26458335"
       id="text826">
      <path
         d="m 19.8041,249.35328 q -2.52,0 -4.176,-1.656 -1.728,-1.656 -1.728,-4.68 0,-4.176 3.024,-9.36 3.096,-5.184 7.848,-8.784 4.752,-3.6 9.504,-3.6 3.168,0 5.256,1.656 2.16,1.584 2.16,4.104 0,3.312 -4.104,3.456 2.592,0.792 2.592,2.16 0,0.504 -0.504,1.512 -0.504,1.008 -1.152,2.088 -1.152,1.872 -1.8,3.312 -0.648,1.368 -0.648,2.592 0,1.08 0.504,1.872 0.576,0.72 1.656,0.72 2.016,0 5.112,-2.808 3.168,-2.808 6.12,-8.424 l 1.368,1.368 q -2.664,5.976 -6.624,9.648 -3.96,3.6 -7.992,3.6 -2.88,0 -4.464,-1.944 -1.512,-1.872 -1.512,-4.32 -3.24,3.888 -5.544,5.688 -2.304,1.8 -4.896,1.8 z m 1.512,-3.672 q 2.52,0 5.832,-3.6 3.384,-3.672 7.632,-9.504 l 1.44,-1.944 q 0.216,-0.36 0.576,-0.36 l 0.288,0.072 q 0.36,-1.152 0.36,-2.664 0,-3.744 -3.024,-3.744 -3.168,0 -6.624,3.384 -3.456,3.384 -5.832,8.064 -2.304,4.68 -2.304,7.992 0,1.224 0.36,1.8 0.432,0.504 1.296,0.504 z"
         style="font-style:normal;font-variant:normal;font-weight:bold;font-stretch:normal;font-size:72px;font-family:'Dancing Script';-inkscape-font-specification:'Dancing Script Bold';fill:#000000;fill-opacity:1;stroke-width:0.26458335"
         id="path11" />
    </g>

</g> 

<g transform="translate(231.825,-166) "> 
<g
       aria-label="y"
       style="font-style:normal;font-weight:normal;font-size:10.58333397px;line-height:1.25;font-family:sans-serif;letter-spacing:0px;word-spacing:0px;fill:#000000;fill-opacity:1;stroke:none;stroke-width:0.26458335"
       id="text826">
      <path
         d="m 19.2281,266.12928 q -2.016,0 -3.456,-1.224 -1.44,-1.152 -1.44,-3.456 0,-2.808 2.088,-5.112 2.16,-2.304 4.968,-3.888 2.808,-1.584 7.272,-3.672 1.224,-3.096 3.456,-11.232 -2.592,3.672 -5.112,5.76 -2.448,2.088 -5.256,2.088 -2.376,0 -4.248,-1.44 -1.872,-1.44 -1.872,-4.536 0,-2.448 1.152,-6.192 1.152,-3.816 2.736,-6.624 1.584,-2.88 2.736,-2.88 0.72,0 2.16,0.792 1.44,0.72 1.728,1.584 -1.368,1.872 -3.024,6.264 -1.584,4.392 -1.584,6.912 0,2.664 2.088,2.664 2.16,0 4.68,-2.52 2.52,-2.52 4.824,-6.192 0.144,-0.504 0.432,-2.376 0.288,-1.872 1.296,-3.24 1.008,-1.44 2.88,-1.44 0.288,0 2.304,0.288 -0.072,1.8 -1.728,7.848 -1.584,6.048 -3.744,11.808 3.528,-1.44 6.624,-4.392 3.168,-2.952 4.968,-7.776 l 1.224,1.008 q -1.512,4.968 -5.256,8.352 -3.672,3.384 -8.496,5.544 -3.384,7.992 -6.912,12.6 -3.456,4.68 -7.488,4.68 z m -0.72,-2.664 q 1.512,0 3.96,-3.096 2.448,-3.024 4.824,-8.424 -4.176,2.088 -7.2,4.608 -2.952,2.52 -2.952,4.896 0,0.792 0.288,1.368 0.36,0.648 1.08,0.648 z"
         style="font-style:normal;font-variant:normal;font-weight:bold;font-stretch:normal;font-size:72px;font-family:'Dancing Script';-inkscape-font-specification:'Dancing Script Bold';fill:#000000;fill-opacity:1;stroke-width:0.26458335"
         id="path11" />
    </g>

</g> 

<g transform="translate(260.545,-166) "> 
  <g
     inkscape:label="Layer 1"
     inkscape:groupmode="layer"
     id="layer1">
    <path
       inkscape:connector-curvature="0"
       id="path839"
       d="m -159.43428,270.3767 c -9.09486,-3.24662 -17.11703,-12.67567 -16.33306,-14.3175 0.72316,-1.51442 13.08623,3.14737 14.24992,3.51421 55.62912,14.09835 101.459527,-3.91023 147.137936,-2.27104 16.8466598,0.60464 23.1016935,1.98901 28.966776,9.70155 0.452907,0.59554 -4.217726,-0.85871 -6.9904156,-1.39926 -4.1753256,-0.81392 -15.2582759,-1.83877 -22.8994964,-1.40262 -29.071043,1.65937 -54.221654,14.82754 -82.087444,14.99471 -26.607966,0.89768 -49.036026,-0.55944 -62.044226,-8.82013 -3e-5,-4e-5 0,-7e-5 0,-7e-5 z"
       style="fill:#000000;fill-opacity:1;stroke-width:0.33460611"
       sodipodi:nodetypes="cscsssacacc" />
  </g>
</g> 



</svg>
