<svg width="765" height="245" viewBox="0 0 765 245" fill="none" xmlns="http://www.w3.org/2000/svg">
<path d="M2 243C13.5684 222.921 22.9607 201.923 33.3333 181.222C38.8527 170.207 45.1623 159.547 50.3889 148.389C58.4988 131.076 63.6158 112.539 68.8889 94.2222C75.5806 70.9772 81.8677 47.6234 88.3889 24.3333C89.7112 19.6109 91.3377 15.4348 93.3333 11C94.4571 8.50277 94.9254 4.15515 96.7778 2.11112C98.6408 0.0553373 99.6975 6.89977 100.5 9.55556C104.074 21.3847 107.312 33.3296 110.667 45.2222C119.577 76.8058 125.13 109.295 132.444 141.278C140.12 174.84 148.197 207.992 161 240" stroke="black" stroke-width="3" stroke-linecap="round"/>
<path d="M14 171C49.0586 165.844 84.6009 161.8 119.889 158.833C201.52 151.97 283.537 157.568 365.222 151.667C397.509 149.334 429.393 144.289 461.556 140.889C515.691 135.167 570.072 135.2 624.444 135.056C670.296 134.934 716.148 135 762 135" stroke="black" stroke-width="3" stroke-linecap="round"/>
<path d="M625 138C610.089 142.678 582.785 138.036 578.222 158C577.465 161.313 577.301 166.786 581.111 168.056C597.924 173.66 612.277 173.772 630 172" stroke="black" stroke-width="3" stroke-linecap="round"/>
<path d="M673 185C675.575 164.397 666.38 144.147 666 123.444C665.87 116.386 664.097 109.537 664 102.444C663.861 92.3092 663.353 82.2359 663.056 72.1111C662.613 57.079 662 42.0405 662 27C662 21.6498 659.908 13.6931 666.611 11.9444C670.36 10.9664 673.047 8.47553 677.056 8.11111C681.171 7.73697 686.114 7.52702 690.222 8.22222C696.878 9.34857 703.436 13.3493 709.556 16C714.85 18.293 724.225 19.336 728.389 23.5C737.857 32.9686 757.028 41.7566 758.056 57.1667C758.531 64.2984 765.149 72.1347 761.778 80C758.005 88.8033 750.681 92.8616 742.444 97.2222C728.186 104.771 712.144 101.607 696.778 104.222C691.07 105.194 683.503 103.832 678.278 106.444C676.031 107.568 670.929 107.142 670 109" stroke="black" stroke-width="3" stroke-linecap="round"/>
</svg>
