<svg width="104" height="54" viewBox="0 0 104 54" fill="none" xmlns="http://www.w3.org/2000/svg">
<path d="M2 43.9436C5.69263 42.05 7.93683 38.2262 10.6792 35.1925C13.1178 32.495 14.4916 28.5898 16.0082 25.2815C17.2523 22.5677 17.7169 19.6513 19.0058 16.9374C20.498 13.7956 22.2705 10.9952 23.4238 7.67759C23.765 6.69601 23.989 5.50437 24.4818 4.59437C24.8674 3.88228 25.0154 2.63577 25.5397 2.09116C25.995 1.61824 25.8042 3.12771 25.8042 3.36312C25.8042 4.65394 26.4355 5.75552 26.5095 6.98565C26.6239 8.88722 27.1727 10.7343 27.4303 12.6433C27.6302 14.1241 28.296 15.4456 28.6646 16.8764C28.9014 17.7955 28.9875 18.7834 29.1153 19.7256C29.3063 21.1349 29.4253 22.5565 29.5953 23.9688C29.8949 26.4592 30.1119 28.9461 30.5651 31.4174C30.9114 33.3061 30.724 35.2645 30.9275 37.1666C31.0377 38.197 31.5933 39.149 31.77 40.1582C31.9515 41.1956 31.7994 42.3932 31.7994 43.445C31.7994 45.1915 31.9757 46.9483 31.9757 48.7058C31.9757 49.6602 32.284 50.5327 32.3283 51.4532C32.3915 52.765 32.7977 51.3915 32.5928 50.7104C32.0348 48.8556 32.2994 46.922 31.2704 45.185C30.9218 44.5966 30.7659 43.6495 30.7414 42.9871C30.7204 42.4201 30.3574 42.2406 30.1732 41.7049C29.9625 41.092 29.4837 41.1178 29.1153 40.6467C28.7488 40.1782 28.1875 39.8228 27.6459 39.6291C26.019 39.0474 24.4099 38.3973 22.8066 37.7568C22.144 37.4921 21.3491 37.4676 20.6515 37.3905C18.6015 37.1639 16.6219 36.3927 14.5682 36.088C13.3062 35.9007 12.1525 35.6332 10.9045 35.3452C9.72191 35.0722 13.3339 35.2456 14.5388 35.3757C15.1704 35.4439 16.193 35.3281 16.6352 35.9252C17.0645 36.5049 17.4927 36.7105 18.1634 36.9427C19.7589 37.4952 21.3989 37.8993 23.0907 37.8993C26.8748 37.8993 30.5509 38.8151 34.3267 38.8151C35.6765 38.8151 36.9693 39.0824 38.2941 39.1712C39.5054 39.2524 40.7268 39.1129 41.9382 39.1916C45.9078 39.4493 49.8647 39.5477 53.8403 39.5477C58.2779 39.5477 62.7154 39.5477 67.153 39.5477C70.0576 39.5477 72.8109 39.6643 75.6951 39.9853C77.9678 40.2382 80.3909 40.4404 82.6796 40.4635C87.0933 40.508 91.51 40.4635 95.9238 40.4635C96.9191 40.4635 97.9077 40.4984 98.9018 40.5551C99.4792 40.5881 100.98 40.3584 101.507 40.6874C101.834 40.8907 100.791 41.013 100.41 41.013C98.527 41.013 96.6545 41.0955 94.7973 40.7383C92.4746 40.2915 90.319 40.2804 87.9597 40.2804C87.2973 40.2804 86.9771 40.5795 86.3923 40.9011C85.4212 41.4351 84.5579 41.5768 83.6201 42.3562C81.2186 44.3518 86.0517 44.6762 87.2544 44.6762C87.7243 44.6762 90.8672 44.3641 89.9776 45.1341C89.6626 45.4068 88.4929 45.2257 88.1948 45.2257C87.3491 45.2257 86.5033 45.2257 85.6576 45.2257C84.8549 45.2257 83.5441 45.4099 83.0323 44.5745C82.5293 43.7534 82.5076 42.8959 83.1498 42.2544C85.3429 40.064 88.3913 40.3098 91.2217 40.6365C92.3452 40.7662 93.5307 40.6467 94.6601 40.6467C94.7829 40.6467 95.6445 40.6239 95.6005 40.7383C95.4005 41.2578 94.9246 40.2987 94.9246 40.0972C94.9246 39.0072 94.8055 37.8373 94.9638 36.7596C95.0652 36.0688 95.727 33.3655 96.5116 33.3202C97.1954 33.2808 98.3632 33.1046 98.9801 33.3609C99.3935 33.5327 99.8435 33.5739 100.254 33.7272C100.633 33.8691 100.861 34.4225 101.184 34.6838C101.972 35.3204 101.978 35.667 101.978 36.7087C101.978 37.4126 102.133 38.2567 101.625 38.8151C101.152 39.3359 100.673 39.8697 99.8618 39.914C99.0115 39.9605 98.1471 39.914 97.2952 39.914C96.6655 39.914 94.9246 39.5601 94.9246 40.3719C94.9246 41.593 94.9246 42.8141 94.9246 44.0352C94.9246 45.1307 94.9246 46.2263 94.9246 47.3219C94.9246 47.5933 95.0303 45.674 94.8854 45.185C93.8703 41.7581 96.7646 37.7879 94.9246 34.6023" stroke="black" stroke-width="3" stroke-linecap="round"/>
</svg>
